HIERARCHY
ROOT Hips
{
  OFFSET 196.326 95.9168 97.7182
  CHANNELS 6 Xposition Yposition Zposition Zrotation Xrotation Yrotation
  JOINT LeftUpLeg
  {
    OFFSET 8.64259 1.95398 -2.38835
    CHANNELS 3 Zrotation Xrotation Yrotation
    JOINT LeftLeg
    {
      OFFSET 43.7702 0 0
      CHANNELS 3 Zrotation Xrotation Yrotation
      JOINT LeftFoot
      {
        OFFSET 40.6238 0 0
        CHANNELS 3 Zrotation Xrotation Yrotation
        JOINT LeftToeBase
        {
          OFFSET 12.7242 0 0
          CHANNELS 3 Zrotation Xrotation Yrotation
          End Site
          {
            OFFSET 0 0 0
          }
        }
      }
    }
  }
  JOINT RightUpLeg
  {
    OFFSET -8.2249 1.95398 -2.59336
    CHANNELS 3 Zrotation Xrotation Yrotation
    JOINT RightLeg
    {
      OFFSET 43.5653 0 0
      CHANNELS 3 Zrotation Xrotation Yrotation
      JOINT RightFoot
      {
        OFFSET 40.6238 0 0
        CHANNELS 3 Zrotation Xrotation Yrotation
        JOINT RightToeBase
        {
          OFFSET 12.7242 0 0
          CHANNELS 3 Zrotation Xrotation Yrotation
          End Site
          {
            OFFSET 0 0 0
          }
        }
      }
    }
  }
  JOINT Spine
  {
    OFFSET 0.165834 0.87714 6.61349
    CHANNELS 3 Zrotation Xrotation Yrotation
    JOINT Spine1
    {
      OFFSET 7.38963 1.71661e-005 0
      CHANNELS 3 Zrotation Xrotation Yrotation
      JOINT Spine2
      {
        OFFSET 11.9445 1.14441e-005 0
        CHANNELS 3 Zrotation Xrotation Yrotation
        JOINT Spine3
        {
          OFFSET 14.7254 4.19617e-005 0
          CHANNELS 3 Zrotation Xrotation Yrotation
          JOINT Spine4
          {
            OFFSET 10.9679 0 0
            CHANNELS 3 Zrotation Xrotation Yrotation
            JOINT RightShoulder
            {
              OFFSET 2.46616 -1.6653 3.69651
              CHANNELS 3 Zrotation Xrotation Yrotation
              JOINT RightArm
              {
                OFFSET 13.0012 0 0
                CHANNELS 3 Zrotation Xrotation Yrotation
                JOINT RightForeArm
                {
                  OFFSET 28.7848 1.52588e-005 0
                  CHANNELS 3 Zrotation Xrotation Yrotation
                  JOINT RightHand
                  {
                    OFFSET 26.5688 1.52588e-005 0
                    CHANNELS 3 Zrotation Xrotation Yrotation
                    End Site
                    {
                      OFFSET 0 0 0
                    }
                  }
                }
              }
            }
            JOINT LeftShoulder
            {
              OFFSET 2.38034 -1.29275 -3.75231
              CHANNELS 3 Zrotation Xrotation Yrotation
              JOINT LeftArm
              {
                OFFSET 16.3182 6.10351e-005 0
                CHANNELS 3 Zrotation Xrotation Yrotation
                JOINT LeftForeArm
                {
                  OFFSET 27.0901 0 0
                  CHANNELS 3 Zrotation Xrotation Yrotation
                  JOINT LeftHand
                  {
                    OFFSET 24.5451 1.52588e-005 0
                    CHANNELS 3 Zrotation Xrotation Yrotation
                    End Site
                    {
                      OFFSET 0 0 0
                    }
                  }
                }
              }
            }
            JOINT Neck
            {
              OFFSET 5.0226 -0.0266342 0
              CHANNELS 3 Zrotation Xrotation Yrotation
              JOINT Head
              {
                OFFSET 6.69363 2.86102e-005 0
                CHANNELS 3 Zrotation Xrotation Yrotation
                End Site
                {
                  OFFSET 0 0 0
                }
              }
            }
          }
        }
      }
    }
  }
}
MOTION
Frames:	6
Frame Time:	0.0416667
-285.245 77.2107 -278.499 85.9361 -45.1329 84.9659 -169.506 50.5852 85.1631 -70.2909 17.6931 -7.41147 81.5078 12.6113 13.3998 43.0153 13.6847 -14.5964 175.865 59.3846 93.3469 -83.6178 -13.3915 -3.43396 91.9369 -13.5359 -3.73752 -112.84 -53.0751 8.96547 0.372319 7.6094 -89.4392 11.6497 1.00356 1.01318 -0.0211956 1.04717 0.968028 -22.5547 0.652686 1.26792 -2.54209 0.652686 1.26792 83.0016 -47.0938 -112.481 26.7886 -9.48484 6.04085 -15.4038 -10.5767 -58.6871 -12.2846 -1.12078 5.673 -98.3498 -44.4952 64.398 -38.7016 7.39075 18.5583 2.9548 13.2192 -23.1698 9.82683 0.975743 5.58315 12.1702 2.30331 1.83596 -0.88384 1.82429 0.500187 
-283.048 78.6458 -276.34 80.3622 -50.5524 78.8647 -166.695 48.7644 85.2207 -66.3517 16.6278 -10.7738 80.0334 15.7513 18.2249 40.3355 10.7422 -22.5083 -176.804 59.5373 90.7515 -84.4751 -14.1016 -4.58298 96.6473 -14.4757 -3.54856 -114.938 -56.776 9.03939 0.950168 7.18848 -89.1249 12.4798 2.30443 1.48601 0.810179 2.3676 1.38311 -21.7288 1.75138 2.10986 -1.71621 1.75137 2.10986 83.7542 -47.3638 -111.219 28.7022 -10.1207 7.98168 -13.7789 -10.9966 -56.6741 -12.585 -1.06892 4.90228 -98.6729 -43.8107 63.6334 -38.4375 7.32076 17.0413 2.8099 12.6372 -22.7261 7.78793 0.862144 6.29335 11.7613 2.06271 1.52552 -1.57449 1.66889 0.504452 
-280.441 81.923 -274.481 80.6687 -49.9926 78.9461 -167.824 42.6704 84.0369 -60.1533 13.6259 -9.15224 77.8533 14.8754 17.8911 39.2715 9.60678 -28.5479 -177.842 53.6337 90.3599 -83.8042 -15.5012 -5.08231 103.871 -16.2268 -3.44171 -116.919 -62.8136 9.82228 0.689422 7.1723 -89.1408 12.5156 1.77866 1.51028 0.845091 1.84338 1.43053 -21.6884 1.24263 1.97493 -1.67574 1.24262 1.97492 84.2292 -47.7501 -110.35 29.8876 -11.4929 9.33751 -12.7549 -11.5412 -55.0299 -11.3761 -1.03759 5.42373 -98.5216 -43.4039 63.7071 -38.2881 7.09857 14.631 3.34942 11.8487 -23.9779 7.24591 0.716921 5.21129 12.1381 2.79282 1.51845 -2.05682 2.37534 0.515424 
-277.464 85.9768 -272.159 81.933 -49.2889 80.4723 -170.3 34.3997 83.4937 -50.922 10.9472 -6.22639 74.7505 13.897 18.4165 39.8614 9.87976 -30.0568 -179.28 45.58 90.6031 -80.0707 -15.9492 -4.97335 108.695 -17.6623 -3.16862 -118.896 -62.5017 8.50994 0.455763 7.19525 -89.2451 12.4738 1.26478 1.36262 0.802768 1.32351 1.30564 -21.729 0.796849 1.67968 -1.71634 0.79684 1.67967 83.1446 -49.1435 -111.515 30.2891 -11.6651 12.3108 -11.6289 -11.3813 -52.4298 -10.6118 -0.852672 4.02847 -98.9853 -43.0065 62.8253 -37.0141 7.94215 12.4413 3.45074 10.6262 -26.588 9.02329 0.781082 4.34671 11.373 3.12768 0.993149 -1.60012 2.86816 1.08536 
-273.587 90.3642 -269.196 82.6102 -48.1359 82.6112 -172.14 24.7419 84.2536 -38.2934 12.1407 -3.82703 69.3873 11.4653 19.0408 43.8892 12.5921 -29.0629 179.207 36.7837 91.3444 -71.5313 -15.3432 -4.08705 106.595 -17.6722 -4.36225 -119.602 -47.0354 3.84073 0.202643 7.20995 -89.5275 12.4508 0.627421 0.871732 0.779756 0.665194 0.843275 -21.7535 0.336438 1.01998 -1.74085 0.33644 1.01999 83.5399 -49.4837 -110.8 31.2082 -11.55 14.9636 -11.4669 -13.0795 -49.4694 -9.78641 -0.71989 2.88243 -100.519 -43.0148 60.4498 -34.7698 8.59625 11.2015 3.86794 8.62392 -31.6729 11.9221 0.895979 3.48511 11.2146 3.23237 0.480129 -2.0491 3.14313 2.41253 
-269.771 93.3853 -265.702 82.8105 -46.3199 83.8984 -173.09 15.6741 85.1186 -26.2706 13.375 -2.52655 65.2557 9.48756 17.8009 45.3214 13.8136 -27.001 177.862 30.7456 91.7992 -61.0054 -8.22905 -2.44488 93.9253 -13.4487 -4.42494 -96.3756 -16.9828 -0.646993 -0.12364 7.20147 -89.7286 12.4703 -0.116565 0.555528 0.799278 -0.0919936 0.560109 -21.7351 -0.278143 0.494811 -1.72246 -0.278135 0.494814 84.3306 -49.5624 -109.578 32.56 -12.0348 16.9398 -12.2125 -15.6047 -47.6894 -8.50914 -0.764556 5.00264 -99.76 -42.5144 61.4137 -32.8947 9.63051 8.3229 5.78537 9.16119 -37.782 14.4534 1.35679 5.42857 10.6869 3.58641 0.13364 -2.03806 3.57019 2.31711 
